<?xml version="1.0" encoding="UTF-8"?>
<svg id="Layer_2" data-name="Layer 2" xmlns="http://www.w3.org/2000/svg" viewBox="0 0 316.71 70.09">
  <defs>
    <style>
      .cls-1 {
        fill: #434343;
      }

      .cls-1, .cls-2, .cls-3, .cls-4, .cls-5, .cls-6, .cls-7 {
        stroke-width: 0px;
      }

      .cls-2 {
        fill: #32a7c1;
      }

      .cls-3 {
        fill: #fff;
      }

      .cls-4 {
        fill: #e5f4f3;
      }

      .cls-5 {
        fill: #ed2e92;
      }

      .cls-6 {
        fill: #f15922;
      }

      .cls-7 {
        fill: #f4f2ef;
      }
    </style>
  </defs>
  <g id="Layer_1-2" data-name="Layer 1">
    <g>
      <g>
        <path class="cls-6" d="M100.36,42.23c0-1.19-.42-2.21-1.27-3.06-.85-.85-1.87-1.27-3.06-1.27-1.44,0-2.6.56-3.46,1.68v14.98c0,1.09-.34,1.96-1.03,2.63-.69.67-1.57,1-2.65,1s-1.96-.33-2.62-1c-.67-.67-1-1.55-1-2.63v-12.32c0-1.19-.43-2.22-1.3-3.07-.87-.85-1.89-1.28-3.08-1.28s-2.26.42-3.11,1.25c-.85.83-1.27,1.86-1.27,3.09v12.32c0,1.09-.33,1.96-1,2.63-.67.67-1.54,1-2.62,1s-1.97-.33-2.65-1c-.69-.67-1.03-1.55-1.03-2.63v-12.31c0-3.29,1.13-6.05,3.38-8.3,2.25-2.24,5.02-3.36,8.31-3.36,2.85,0,5.38.94,7.58,2.81,2.16-1.88,4.69-2.81,7.58-2.81,3.28,0,6.04,1.12,8.28,3.36,2.24,2.24,3.35,5,3.35,8.29v16.15c0,1.23.42,2.27,1.27,3.12.85.85,1.88,1.27,3.11,1.27h.22c1.08,0,1.97.34,2.65,1.03.69.68,1.03,1.57,1.03,2.65s-.34,1.96-1.03,2.62c-.69.67-1.57,1-2.65,1h-.22c-3.28,0-6.05-1.13-8.31-3.39-2.26-2.26-3.38-5.03-3.38-8.32v-16.15Z"/>
        <path class="cls-6" d="M119.25,20.39c.88.88,1.33,1.94,1.33,3.17s-.44,2.28-1.33,3.17-1.94,1.33-3.17,1.33-2.28-.44-3.17-1.33c-.88-.88-1.33-1.94-1.33-3.17s.44-2.28,1.33-3.17,1.94-1.33,3.17-1.33,2.28.44,3.17,1.33ZM119.76,34.22c0-2.42-1.23-3.63-3.68-3.63-1.08,0-1.96.34-2.62,1-.67.67-1,1.54-1,2.63v20.33c0,1.08.33,1.96,1,2.63.67.67,1.54,1,2.62,1s1.97-.33,2.65-1c.69-.67,1.03-1.55,1.03-2.63v-20.33Z"/>
        <path class="cls-6" d="M136.54,37.89c-1.8,0-3.34.64-4.6,1.91-1.26,1.28-1.89,2.81-1.89,4.61s.63,3.32,1.89,4.58c1.26,1.26,2.8,1.89,4.6,1.89,1.08,0,1.97.34,2.65,1.03.68.69,1.03,1.57,1.03,2.65s-.34,1.96-1.03,2.62c-.69.67-1.57,1-2.65,1-3.86,0-7.13-1.33-9.8-4-2.67-2.66-4-5.92-4-9.78s1.33-7.17,3.98-9.83c2.65-2.66,5.93-4,9.82-4,1.08,0,1.97.34,2.65,1.03.68.69,1.03,1.57,1.03,2.65s-.34,1.96-1.03,2.62c-.69.67-1.57,1-2.65,1Z"/>
        <path class="cls-6" d="M150.45,42.24v12.32c0,1.09-.34,1.96-1.03,2.63s-1.57,1-2.65,1-1.96-.33-2.62-1c-.67-.67-1-1.55-1-2.63v-12.31c0-3.29,1.13-6.05,3.38-8.3,2.25-2.24,5.02-3.36,8.31-3.36,1.05,0,1.91.34,2.6,1.03.69.69,1.03,1.55,1.03,2.6,0,2.24-1.24,3.46-3.73,3.68-1.23.11-2.25.55-3.06,1.33s-1.22,1.78-1.22,3.01Z"/>
        <path class="cls-6" d="M173.37,30.59c3.9,0,7.18,1.33,9.85,3.99,2.67,2.66,4,5.94,4,9.84s-1.33,7.19-4,9.87c-2.67,2.68-5.95,4.01-9.85,4.01s-7.17-1.34-9.82-4.01c-2.65-2.68-3.98-5.96-3.98-9.87s1.33-7.18,3.98-9.84c2.65-2.66,5.93-3.99,9.82-3.99ZM173.37,37.89c-1.8,0-3.34.63-4.6,1.9-1.26,1.27-1.89,2.81-1.89,4.62s.63,3.36,1.89,4.65c1.26,1.29,2.8,1.93,4.6,1.93s3.35-.64,4.63-1.93c1.28-1.29,1.92-2.84,1.92-4.65s-.64-3.35-1.92-4.62c-1.28-1.27-2.82-1.9-4.63-1.9Z"/>
        <path class="cls-6" d="M204,30.59c3.9,0,7.18,1.33,9.85,4,2.67,2.66,4,5.94,4,9.83s-1.34,7.11-4.03,9.78c-2.69,2.66-5.96,4-9.82,4s-7.13-1.34-9.8-4.01c-2.67-2.67-4-5.94-4-9.81v-21.24c0-1.05.34-1.91,1.03-2.6.68-.69,1.55-1.03,2.6-1.03s1.97.34,2.65,1c.69.67,1.03,1.54,1.03,2.63v21.25c0,1.81.63,3.34,1.89,4.61,1.26,1.26,2.8,1.9,4.6,1.9s3.35-.63,4.63-1.89c1.28-1.26,1.92-2.78,1.92-4.58s-.64-3.33-1.92-4.61c-1.28-1.28-2.82-1.91-4.63-1.91-1.08,0-1.96-.33-2.62-1-.67-.67-1-1.54-1-2.62s.33-1.97,1-2.65c.67-.68,1.54-1.03,2.62-1.03Z"/>
        <path class="cls-6" d="M228.08,34.29v12.19c0,1.23.42,2.28,1.27,3.13.85.85,1.89,1.28,3.11,1.28s2.25-.42,3.08-1.28c.83-.85,1.24-1.89,1.24-3.12v-12.26c0-1.08.34-1.96,1.03-2.63.69-.67,1.57-1,2.65-1s1.96.34,2.62,1c.67.67,1,1.54,1,2.63v12.25c0,3.29-1.12,6.06-3.36,8.32-2.24,2.26-5,3.39-8.28,3.39s-6.1-1.12-8.33-3.37c-2.24-2.25-3.36-5.03-3.36-8.37v-12.17c0-1.09.33-1.97,1-2.66.67-.69,1.54-1.03,2.62-1.03s1.97.35,2.65,1.03c.69.69,1.03,1.58,1.03,2.67Z"/>
        <path class="cls-6" d="M262.23,38.94c-.62.61-.93,1.37-.93,2.28v6.29c-.04,2.96-1.07,5.48-3.11,7.54-2.04,2.06-4.54,3.09-7.5,3.09-1.08,0-1.96-.33-2.62-1-.67-.67-1-1.54-1-2.62s.33-1.97,1-2.65c.67-.68,1.54-1.03,2.62-1.03.94,0,1.72-.32,2.35-.95.63-.63.95-1.42.95-2.36v-6.29c0-3,1.02-5.53,3.07-7.57,2.05-2.04,4.57-3.07,7.58-3.07,1.09,0,1.97.34,2.66,1,.69.67,1.03,1.54,1.03,2.63s-.33,1.9-.98,2.55c-.66.65-1.52,1.02-2.59,1.11-1.07.09-1.92.44-2.54,1.06Z"/>
        <path class="cls-2" d="M267.11,56.4c-.87-.87-1.3-1.93-1.3-3.19s.44-2.27,1.33-3.14c.88-.87,1.94-1.3,3.17-1.3s2.28.43,3.17,1.3c.88.87,1.33,1.91,1.33,3.14s-.43,2.33-1.3,3.19c-.87.87-1.93,1.3-3.19,1.3s-2.33-.43-3.19-1.3Z"/>
        <path class="cls-6" d="M286.08,34.22c0-2.42-1.23-3.63-3.68-3.63-1.08,0-1.96.34-2.62,1-.67.67-1,1.54-1,2.63v20.33c0,1.08.33,1.96,1,2.63.67.67,1.54,1,2.62,1s1.97-.33,2.65-1c.69-.67,1.03-1.55,1.03-2.63v-20.33Z"/>
        <path class="cls-6" d="M302.85,30.59c3.9,0,7.18,1.33,9.85,3.99,2.67,2.66,4,5.94,4,9.84s-1.33,7.19-4,9.87c-2.67,2.68-5.95,4.01-9.85,4.01s-7.17-1.34-9.82-4.01c-2.65-2.68-3.98-5.96-3.98-9.87s1.33-7.18,3.98-9.84c2.65-2.66,5.93-3.99,9.82-3.99ZM302.85,37.89c-1.8,0-3.34.63-4.6,1.9-1.26,1.27-1.89,2.81-1.89,4.62s.63,3.36,1.89,4.65c1.26,1.29,2.8,1.93,4.6,1.93s3.35-.64,4.63-1.93c1.28-1.29,1.92-2.84,1.92-4.65s-.64-3.35-1.92-4.62c-1.28-1.27-2.82-1.9-4.63-1.9Z"/>
      </g>
      <g>
        <g>
          <path class="cls-5" d="M284.22,18.53c-1.24-1.24-3.7-.81-4.4.82-.75-.57-2.13-1.29-2.75-1.91-4.36-4.36,2.58-8.75,4.82.05.01-1.42-.44-2.87.04-4.27,1.52-4.45,8.77-1.06,2.3,5.31Z"/>
          <path class="cls-5" d="M284.6,21.25c.39-.75.31-1.85-.18-2.53,6.74-6.17,10.54,2.18,4.59,3.12-1.36.21-3.09-.24-4.41-.59Z"/>
          <path class="cls-5" d="M284.55,21.34c2.02.77,4.74,3.93,2.64,5.88-2.47,2.29-5.03-2.32-5.27-4.58.96-.09,2.09-.41,2.63-1.3Z"/>
          <path class="cls-5" d="M281.73,22.53c.04,1.95-.74,5.17-3.18,5.27-.8.03-1.85-.66-2.15-1.4-1.07-2.58,1.53-4.12,3.47-5.03.25.56,1.23,1.15,1.86,1.16Z"/>
          <path class="cls-5" d="M279.77,19.44c-.18.54-.13,1.42.1,1.93-7.59,3.59-8.81-2.83-4.57-3.36,1.21-.15,3.38.82,4.47,1.43Z"/>
        </g>
        <path class="cls-5" d="M284.22,18.53c.05.05.19.17.2.18.49.68.57,1.78.18,2.53-.01.02-.04.07-.05.09-.55.89-1.68,1.21-2.63,1.3l-.18-.11c-.63-.01-1.61-.61-1.86-1.16-.23-.5-.28-1.39-.1-1.93,0,0,.02,0,.05-.09.7-1.63,3.16-2.06,4.4-.82ZM281.61,18.58c-1.85.65-1.41,3.38.55,3.37,3.04-.02,2.25-4.36-.55-3.37Z"/>
        <path class="cls-3" d="M281.61,18.58c2.8-.99,3.6,3.36.55,3.37-1.96,0-2.4-2.72-.55-3.37Z"/>
      </g>
      <g>
        <path class="cls-2" d="M62.18,56.55v-27.53l-2.08-20.4c-.23-1.1-.69-2.16-1.41-3.11-.1-.13-.21-.27-.32-.4-.74-.89-1.78-1.57-3-1.98-4.7-1.58-25.44-6.3-46.27.23,0,0-.98.32-1.49.53-2.37.99-3.78,2.8-4.22,4.94l-1.87,19.74v27.98h60.66Z"/>
        <g>
          <rect class="cls-1" x="48.62" y="54.44" width="9.83" height="15.58" rx="4.92" ry="4.92"/>
          <rect class="cls-1" x="5.31" y="54.44" width="9.83" height="15.58" rx="4.92" ry="4.92"/>
        </g>
        <g>
          <circle class="cls-7" cx="13.07" cy="35.96" r="4.84"/>
          <circle class="cls-7" cx="50.55" cy="35.96" r="4.84"/>
        </g>
        <path class="cls-4" d="M28.19,24.36H7.76c-1.39,0-2.51-1.12-2.51-2.51l1-10.46c0-1.39,1.12-2.51,2.51-2.51h19.42c1.39,0,2.51,1.12,2.51,2.51v10.46c0,1.39-1.12,2.51-2.51,2.51Z"/>
        <path class="cls-4" d="M35.46,24.36h20.42c1.39,0,2.51-1.12,2.51-2.51l-1-10.46c0-1.39-1.12-2.51-2.51-2.51h-19.42c-1.39,0-2.51,1.12-2.51,2.51v10.46c0,1.39,1.12,2.51,2.51,2.51Z"/>
        <path class="cls-4" d="M2.14,54.29h59.41c.64,0,1.16.2,1.55.61.39.41.59.93.59,1.57s-.2,1.16-.59,1.55c-.39.4-.91.59-1.55.59H2.14c-.64,0-1.16-.2-1.55-.59C.2,57.62,0,57.1,0,56.46c0-1.45.71-2.18,2.14-2.18Z"/>
        <path class="cls-7" d="M31.94,51.05c-4.53-.08-8.29-1.59-11.43-4.6-.85-.81-.9-1.94-.14-2.77.78-.85,1.91-.93,2.79-.13,1.15,1.05,2.37,1.99,3.82,2.59,3.66,1.52,7.25,1.37,10.72-.55,1-.55,1.87-1.34,2.76-2.06,1.22-1,2.92-.47,3.27,1.07.17.72-.09,1.32-.6,1.82-2.63,2.56-5.77,4.06-9.42,4.5-.65.08-1.3.1-1.77.13Z"/>
      </g>
    </g>
  </g>
</svg>