<svg xmlns="http://www.w3.org/2000/svg" xmlns:xlink="http://www.w3.org/1999/xlink" xmlns:lucid="lucid" width="599.07" height="480"><g transform="translate(-60.463526237942915 -180)" lucid:page-tab-id="0_0"><path d="M80.46 326a6 6 0 0 1 6-6h148a6 6 0 0 1 6 6v68a6 6 0 0 1-6 6h-148a6 6 0 0 1-6-6z" stroke="#3a414a" fill="#ffdda6"/><use xlink:href="#a" transform="matrix(1,0,0,1,92.46352623794292,332) translate(44.60493827160494 21.34027777777778)"/><use xlink:href="#b" transform="matrix(1,0,0,1,92.46352623794292,332) translate(3.246913580246911 48.00694444444444)"/><path d="M479.54 206a6 6 0 0 1 6-6h148a6 6 0 0 1 6 6v68a6 6 0 0 1-6 6h-148a6 6 0 0 1-6-6z" stroke="#3a414a" fill="#ffdda6"/><use xlink:href="#a" transform="matrix(1,0,0,1,491.5364737620571,212) translate(44.60493827160494 21.34027777777778)"/><use xlink:href="#b" transform="matrix(1,0,0,1,491.5364737620571,212) translate(3.246913580246911 48.00694444444444)"/><path d="M479.54 326a6 6 0 0 1 6-6h148a6 6 0 0 1 6 6v68a6 6 0 0 1-6 6h-148a6 6 0 0 1-6-6z" stroke="#3a414a" fill="#ffdda6"/><use xlink:href="#a" transform="matrix(1,0,0,1,491.5364737620571,332) translate(44.60493827160494 21.34027777777778)"/><use xlink:href="#b" transform="matrix(1,0,0,1,491.5364737620571,332) translate(3.246913580246911 48.00694444444444)"/><path d="M479.54 446a6 6 0 0 1 6-6h148a6 6 0 0 1 6 6v68a6 6 0 0 1-6 6h-148a6 6 0 0 1-6-6z" stroke="#3a414a" fill="#ffdda6"/><use xlink:href="#a" transform="matrix(1,0,0,1,491.5364737620571,452) translate(44.60493827160494 21.34027777777778)"/><use xlink:href="#b" transform="matrix(1,0,0,1,491.5364737620571,452) translate(3.246913580246911 48.00694444444444)"/><path d="M479.54 566a6 6 0 0 1 6-6h148a6 6 0 0 1 6 6v68a6 6 0 0 1-6 6h-148a6 6 0 0 1-6-6z" stroke="#3a414a" fill="#ffdda6"/><use xlink:href="#c" transform="matrix(1,0,0,1,491.5364737620571,572) translate(58.74074074074074 32.02777777777778)"/><path d="M400 360c0 22.1-17.9 40-40 40s-40-17.9-40-40 17.9-40 40-40 40 17.9 40 40z" stroke="#3a414a" fill="#fff7a1"/><use xlink:href="#d" transform="matrix(1,0,0,1,325,325.00000000000006) translate(6.60493827160494 39.65277777777778)"/><path d="M256.6 361h-14.67v-2h14.66zm44.4 0h-10.93v-2H301z" stroke="#979ea8" stroke-width=".05" fill="#979ea8"/><path d="M241.95 361h-1.02v-2h1.02z" fill="#979ea8"/><path d="M241.98 361.02h-1.08v-2.04h1.08zm-1.03-2v1.96h.98v-1.96z" stroke="#979ea8" stroke-width=".05" fill="#979ea8"/><path d="M316.26 360L302 364.64v-9.28z" fill="#979ea8"/><path d="M319.5 360l-18.5 6v-12zm-16.5 3.26l10.03-3.26-10.03-3.26z" stroke="#979ea8" stroke-width=".05" fill="#979ea8"/><use xlink:href="#e" transform="matrix(1,0,0,1,256.59259259259255,349.3333333333333) translate(0 14.222222222222223)"/><path d="M440.86 474.82l.17.72.3.73.4.67.52.6.6.5.67.4.72.3.76.2.83.06h32.24v2h-32.32l-1.06-.08-1.08-.26-1-.42-.95-.57-.84-.72-.7-.83-.58-.94-.42-1.02-.27-1.1-.03-48.4h2zm-6-115.75l1.1.27 1 .42.94.57.84.72.7.83.6.94.4 1.02.26 1.06.1 1.06v39.37h-2v-39.3l-.08-.8-.18-.77-.3-.73-.4-.67-.52-.6-.6-.5-.66-.4-.73-.3-.73-.2L419 361v-2z" stroke="#979ea8" stroke-width=".05" fill="#979ea8"/><path d="M479.07 481h-1.02v-2h1.02z" fill="#979ea8"/><path d="M479.1 481.02h-1.08v-2.04h1.08zm-1.03-2v1.96h.98v-1.96z" stroke="#979ea8" stroke-width=".05" fill="#979ea8"/><path d="M418 364.64L403.74 360l14.26-4.64z" fill="#979ea8"/><path d="M419 366l-18.5-6 18.5-6zm-12.03-6l10.03 3.26v-6.52z" stroke="#979ea8" stroke-width=".05" fill="#979ea8"/><path d="M478.07 360H419" stroke="#979ea8" stroke-width="2" fill="none"/><path d="M479.07 361h-1.02v-2h1.02z" stroke="#979ea8" stroke-width=".05" fill="#979ea8"/><path d="M403.74 360l14.26-4.64v9.28z" stroke="#979ea8" stroke-width="2" fill="#979ea8"/><path d="M478.07 240H445.8a6 6 0 0 0-6 6v108a6 6 0 0 1-6 6H419" stroke="#979ea8" stroke-width="2" fill="none"/><path d="M479.07 241h-1.02v-2h1.02z" stroke="#979ea8" stroke-width=".05" fill="#979ea8"/><path d="M403.74 360l14.26-4.64v9.28z" stroke="#979ea8" stroke-width="2" fill="#979ea8"/><path d="M440.86 594.82l.17.72.3.73.4.67.52.6.6.5.67.4.72.3.76.2.83.06h32.24v2h-32.32l-1.06-.08-1.08-.26-1-.42-.95-.57-.84-.72-.7-.83-.58-.94-.42-1.02-.27-1.1-.05-168.4h2zm-6-235.75l1.1.27 1 .42.94.57.84.72.7.83.6.94.4 1.02.26 1.06.1 1.06v39.37h-2v-39.3l-.08-.8-.18-.77-.3-.73-.4-.67-.52-.6-.6-.5-.66-.4-.73-.3-.73-.2L419 361v-2z" stroke="#979ea8" stroke-width=".05" fill="#979ea8"/><path d="M479.07 601h-1.02v-2h1.02z" fill="#979ea8"/><path d="M479.1 601.02h-1.08V599h1.08zm-1.03-2V601h.98V599z" stroke="#979ea8" stroke-width=".05" fill="#979ea8"/><path d="M418 364.64L403.74 360l14.26-4.64z" fill="#979ea8"/><path d="M419 366l-18.5-6 18.5-6zm-12.03-6l10.03 3.26v-6.52z" stroke="#979ea8" stroke-width=".05" fill="#979ea8"/><g><use xlink:href="#f" transform="matrix(1,0,0,1,423.04588895123845,405.33333333333326) translate(0 14.222222222222223)"/></g><defs><path fill="#3a414a" d="M232-93c-1 65-40 97-104 97C67 4 28-28 28-90v-158h33c8 89-33 224 67 224 102 0 64-133 71-224h33v155" id="g"/><path fill="#3a414a" d="M135-143c-3-34-86-38-87 0 15 53 115 12 119 90S17 21 10-45l28-5c4 36 97 45 98 0-10-56-113-15-118-90-4-57 82-63 122-42 12 7 21 19 24 35" id="h"/><path fill="#3a414a" d="M100-194c63 0 86 42 84 106H49c0 40 14 67 53 68 26 1 43-12 49-29l28 8c-11 28-37 45-77 45C44 4 14-33 15-96c1-61 26-98 85-98zm52 81c6-60-76-77-97-28-3 7-6 17-6 28h103" id="i"/><path fill="#3a414a" d="M114-163C36-179 61-72 57 0H25l-1-190h30c1 12-1 29 2 39 6-27 23-49 58-41v29" id="j"/><g id="a"><use transform="matrix(0.06172839506172839,0,0,0.06172839506172839,0,0)" xlink:href="#g"/><use transform="matrix(0.06172839506172839,0,0,0.06172839506172839,15.987654320987653,0)" xlink:href="#h"/><use transform="matrix(0.06172839506172839,0,0,0.06172839506172839,27.098765432098766,0)" xlink:href="#i"/><use transform="matrix(0.06172839506172839,0,0,0.06172839506172839,39.44444444444444,0)" xlink:href="#j"/></g><path fill="#3a414a" d="M240 0l2-218c-23 76-54 145-80 218h-23L58-218 59 0H30v-248h44l77 211c21-75 51-140 76-211h43V0h-30" id="k"/><path fill="#3a414a" d="M141-36C126-15 110 5 73 4 37 3 15-17 15-53c-1-64 63-63 125-63 3-35-9-54-41-54-24 1-41 7-42 31l-33-3c5-37 33-52 76-52 45 0 72 20 72 64v82c-1 20 7 32 28 27v20c-31 9-61-2-59-35zM48-53c0 20 12 33 32 33 41-3 63-29 60-74-43 2-92-5-92 41" id="l"/><path fill="#3a414a" d="M117-194c89-4 53 116 60 194h-32v-121c0-31-8-49-39-48C34-167 62-67 57 0H25l-1-190h30c1 10-1 24 2 32 11-22 29-35 61-36" id="m"/><path fill="#3a414a" d="M177-190C167-65 218 103 67 71c-23-6-38-20-44-43l32-5c15 47 100 32 89-28v-30C133-14 115 1 83 1 29 1 15-40 15-95c0-56 16-97 71-98 29-1 48 16 59 35 1-10 0-23 2-32h30zM94-22c36 0 50-32 50-73 0-42-14-75-50-75-39 0-46 34-46 75s6 73 46 73" id="n"/><path fill="#3a414a" d="M210-169c-67 3-38 105-44 169h-31v-121c0-29-5-50-35-48C34-165 62-65 56 0H25l-1-190h30c1 10-1 24 2 32 10-44 99-50 107 0 11-21 27-35 58-36 85-2 47 119 55 194h-31v-121c0-29-5-49-35-48" id="o"/><path fill="#3a414a" d="M59-47c-2 24 18 29 38 22v24C64 9 27 4 27-40v-127H5v-23h24l9-43h21v43h35v23H59v120" id="p"/><g id="b"><use transform="matrix(0.06172839506172839,0,0,0.06172839506172839,0,0)" xlink:href="#k"/><use transform="matrix(0.06172839506172839,0,0,0.06172839506172839,18.456790123456788,0)" xlink:href="#l"/><use transform="matrix(0.06172839506172839,0,0,0.06172839506172839,30.80246913580247,0)" xlink:href="#m"/><use transform="matrix(0.06172839506172839,0,0,0.06172839506172839,43.148148148148145,0)" xlink:href="#l"/><use transform="matrix(0.06172839506172839,0,0,0.06172839506172839,55.49382716049382,0)" xlink:href="#n"/><use transform="matrix(0.06172839506172839,0,0,0.06172839506172839,67.8395061728395,0)" xlink:href="#i"/><use transform="matrix(0.06172839506172839,0,0,0.06172839506172839,80.18518518518519,0)" xlink:href="#o"/><use transform="matrix(0.06172839506172839,0,0,0.06172839506172839,98.64197530864197,0)" xlink:href="#i"/><use transform="matrix(0.06172839506172839,0,0,0.06172839506172839,110.98765432098766,0)" xlink:href="#m"/><use transform="matrix(0.06172839506172839,0,0,0.06172839506172839,123.33333333333334,0)" xlink:href="#p"/></g><path fill="#3a414a" d="M33 0v-38h34V0H33" id="q"/><g id="c"><use transform="matrix(0.06172839506172839,0,0,0.06172839506172839,0,0)" xlink:href="#q"/><use transform="matrix(0.06172839506172839,0,0,0.06172839506172839,6.172839506172839,0)" xlink:href="#q"/><use transform="matrix(0.06172839506172839,0,0,0.06172839506172839,12.345679012345679,0)" xlink:href="#q"/></g><path fill="#3a414a" d="M30 0v-248h187v28H63v79h144v27H63v87h162V0H30" id="r"/><path fill="#3a414a" d="M108 0H70L1-190h34L89-25l56-165h34" id="s"/><g id="d"><use transform="matrix(0.06172839506172839,0,0,0.06172839506172839,0,0)" xlink:href="#r"/><use transform="matrix(0.06172839506172839,0,0,0.06172839506172839,14.814814814814813,0)" xlink:href="#s"/><use transform="matrix(0.06172839506172839,0,0,0.06172839506172839,25.925925925925924,0)" xlink:href="#i"/><use transform="matrix(0.06172839506172839,0,0,0.06172839506172839,38.2716049382716,0)" xlink:href="#m"/><use transform="matrix(0.06172839506172839,0,0,0.06172839506172839,50.61728395061728,0)" xlink:href="#p"/></g><path fill="#979ea8" d="M24-248c93 1 206-16 204 79-1 75-69 88-152 82V0H24v-248zm52 121c47 0 100 7 100-41 0-47-54-39-100-39v80" id="t"/><path fill="#979ea8" d="M85 4C-2 5 27-109 22-190h50c7 57-23 150 33 157 60-5 35-97 40-157h50l1 190h-47c-2-12 1-28-3-38-12 25-28 42-61 42" id="u"/><path fill="#979ea8" d="M135-194c52 0 70 43 70 98 0 56-19 99-73 100-30 1-46-15-58-35L72 0H24l1-261h50v104c11-23 29-37 60-37zM114-30c31 0 40-27 40-66 0-37-7-63-39-63s-41 28-41 65c0 36 8 64 40 64" id="v"/><g id="e"><use transform="matrix(0.04938271604938272,0,0,0.04938271604938272,0,0)" xlink:href="#t"/><use transform="matrix(0.04938271604938272,0,0,0.04938271604938272,11.851851851851853,0)" xlink:href="#u"/><use transform="matrix(0.04938271604938272,0,0,0.04938271604938272,22.666666666666668,0)" xlink:href="#v"/></g><path fill="#979ea8" d="M169-182c-1-43-94-46-97-3 18 66 151 10 154 114 3 95-165 93-204 36-6-8-10-19-12-30l50-8c3 46 112 56 116 5-17-69-150-10-154-114-4-87 153-88 188-35 5 8 8 18 10 28" id="w"/><g id="f"><use transform="matrix(0.04938271604938272,0,0,0.04938271604938272,0,0)" xlink:href="#w"/><use transform="matrix(0.04938271604938272,0,0,0.04938271604938272,11.851851851851853,0)" xlink:href="#u"/><use transform="matrix(0.04938271604938272,0,0,0.04938271604938272,22.666666666666668,0)" xlink:href="#v"/></g></defs></g></svg>