<?xml version="1.0" encoding="UTF-8"?>
<svg id="Layer_2" data-name="Layer 2" xmlns="http://www.w3.org/2000/svg" viewBox="0 0 150.24 150.24" height="100">
  <defs>
    <style>
      .cls-2 {
        fill: #434343;
      }

      .cls-2, .cls-3, .cls-4, .cls-5 {
        stroke-width: 0px;
      }

      .cls-3 {
        fill: #32a7c1;
      }

      .cls-4 {
        fill: #e5f4f3;
      }

      .cls-5 {
        fill: #f4f2ef;
      }
    </style>
  </defs>
  <g id="Layer_1-2" data-name="Layer 1">
    <path class="cls-3" d="M129.53,114.25v-51.12l-4.17-40.86c-.45-2.2-1.39-4.33-2.83-6.22-.2-.27-.42-.54-.64-.8-1.48-1.77-3.57-3.15-6-3.97-9.42-3.16-50.95-12.62-92.67.46,0,0-1.97.63-2.99,1.06-4.75,1.98-7.58,5.61-8.45,9.9l-3.74,39.53v52.03h121.5Z"/>
    <g>
      <rect class="cls-2" x="102.38" y="114.04" width="19.69" height="31.2" rx="9.85" ry="9.85"/>
      <rect class="cls-2" x="15.64" y="114.04" width="19.69" height="31.2" rx="9.85" ry="9.85"/>
    </g>
    <g>
      <circle class="cls-5" cx="31.18" cy="77.02" r="9.7"/>
      <circle class="cls-5" cx="106.24" cy="77.02" r="9.7"/>
    </g>
    <path class="cls-4" d="M61.46,53.79H20.55c-2.77,0-5.02-2.25-5.02-5.02l2-20.94c0-2.77,2.25-5.02,5.02-5.02h38.9c2.77,0,5.02,2.25,5.02,5.02v20.94c0,2.77-2.25,5.02-5.02,5.02Z"/>
    <path class="cls-4" d="M76.03,53.79h40.91c2.77,0,5.02-2.25,5.02-5.02l-2-20.94c0-2.77-2.25-5.02-5.02-5.02h-38.9c-2.77,0-5.02,2.25-5.02,5.02v20.94c0,2.77,2.25,5.02,5.02,5.02Z"/>
    <path class="cls-4" d="M9.29,113.73h118.99c1.28,0,2.32.41,3.11,1.22.79.81,1.19,1.86,1.19,3.14,0,1.28-.4,2.32-1.19,3.11-.79.79-1.83,1.19-3.11,1.19H9.29c-1.28,0-2.32-.39-3.11-1.19-.79-.79-1.19-1.83-1.19-3.11,0-2.9,1.43-4.36,4.29-4.36Z"/>
    <path class="cls-5" d="M68.98,107.24c-9.07-.15-16.59-3.19-22.89-9.22-1.69-1.62-1.79-3.88-.29-5.54,1.55-1.71,3.82-1.87,5.59-.26,2.31,2.1,4.75,3.99,7.65,5.19,7.32,3.05,14.53,2.75,21.46-1.1,1.99-1.11,3.75-2.67,5.53-4.13,2.45-2,5.84-.93,6.56,2.15.33,1.44-.18,2.65-1.2,3.64-5.27,5.12-11.56,8.14-18.87,9-1.29.15-2.6.2-3.54.27Z"/>
  </g>
</svg>