<svg xmlns="http://www.w3.org/2000/svg" xmlns:xlink="http://www.w3.org/1999/xlink" xmlns:lucid="lucid" width="720" height="442.23"><g transform="translate(0 -148.7684390119174)" lucid:page-tab-id="0_0"><path d="M20 206a6 6 0 0 1 6-6h188a6 6 0 0 1 6 6v327.54a6 6 0 0 1-6 6H26a6 6 0 0 1-6-6z" stroke="#3a414a" fill="#ffdda6"/><use xlink:href="#a" transform="matrix(1,0,0,1,32,212.00000000000003) translate(1.024691358024711 17.77777777777778)"/><use xlink:href="#b" transform="matrix(1,0,0,1,32,212.00000000000003) translate(71.33333333333334 17.77777777777778)"/><use xlink:href="#c" transform="matrix(1,0,0,1,32,212.00000000000003) translate(162.62962962962962 17.77777777777778)"/><path d="M260 206a6 6 0 0 1 6-6h188a6 6 0 0 1 6 6v327.54a6 6 0 0 1-6 6H266a6 6 0 0 1-6-6z" stroke="#3a414a" fill="#ffdda6"/><use xlink:href="#a" transform="matrix(1,0,0,1,272,212.00000000000003) translate(1.024691358024711 17.77777777777778)"/><use xlink:href="#b" transform="matrix(1,0,0,1,272,212.00000000000003) translate(71.33333333333334 17.77777777777778)"/><use xlink:href="#d" transform="matrix(1,0,0,1,272,212.00000000000003) translate(162.62962962962962 17.77777777777778)"/><path d="M500 206a6 6 0 0 1 6-6h188a6 6 0 0 1 6 6v327.54a6 6 0 0 1-6 6H506a6 6 0 0 1-6-6z" stroke="#3a414a" fill="#ffdda6"/><use xlink:href="#a" transform="matrix(1,0,0,1,512,212.00000000000003) translate(1.024691358024711 17.77777777777778)"/><use xlink:href="#b" transform="matrix(1,0,0,1,512,212.00000000000003) translate(71.33333333333334 17.77777777777778)"/><use xlink:href="#e" transform="matrix(1,0,0,1,512,212.00000000000003) translate(162.62962962962962 17.77777777777778)"/><path d="M140 426a6 6 0 0 1 6-6h56a6 6 0 0 1 6 6v32.44a6 6 0 0 1-6 6h-56a6 6 0 0 1-6-6z" stroke="#3a414a" fill="#e3fae3"/><path d="M620 486a6 6 0 0 1 6-6h56a6 6 0 0 1 6 6v32.44a6 6 0 0 1-6 6h-56a6 6 0 0 1-6-6zM620 246a6 6 0 0 1 6-6h56a6 6 0 0 1 6 6v32.44a6 6 0 0 1-6 6h-56a6 6 0 0 1-6-6zM40 486a6 6 0 0 1 6-6h56a6 6 0 0 1 6 6v32.44a6 6 0 0 1-6 6H46a6 6 0 0 1-6-6z" stroke="#3a414a" fill="#fff3d9"/><path d="M520 426a6 6 0 0 1 6-6h56a6 6 0 0 1 6 6v32.44a6 6 0 0 1-6 6h-56a6 6 0 0 1-6-6z" stroke="#3a414a" fill="#e3fae3"/><path d="M40 366a6 6 0 0 1 6-6h56a6 6 0 0 1 6 6v32.44a6 6 0 0 1-6 6H46a6 6 0 0 1-6-6zM520 486a6 6 0 0 1 6-6h56a6 6 0 0 1 6 6v32.44a6 6 0 0 1-6 6h-56a6 6 0 0 1-6-6z" stroke="#3a414a" fill="#fff3d9"/><path d="M140 486a6 6 0 0 1 6-6h56a6 6 0 0 1 6 6v32.44a6 6 0 0 1-6 6h-56a6 6 0 0 1-6-6zM40 246a6 6 0 0 1 6-6h56a6 6 0 0 1 6 6v32.44a6 6 0 0 1-6 6H46a6 6 0 0 1-6-6zM280 486a6 6 0 0 1 6-6h56a6 6 0 0 1 6 6v32.44a6 6 0 0 1-6 6h-56a6 6 0 0 1-6-6zM280 426a6 6 0 0 1 6-6h56a6 6 0 0 1 6 6v32.44a6 6 0 0 1-6 6h-56a6 6 0 0 1-6-6zM380 306a6 6 0 0 1 6-6h56a6 6 0 0 1 6 6v32.44a6 6 0 0 1-6 6h-56a6 6 0 0 1-6-6zM280 246a6 6 0 0 1 6-6h56a6 6 0 0 1 6 6v32.44a6 6 0 0 1-6 6h-56a6 6 0 0 1-6-6z" stroke="#3a414a" fill="#e3fae3"/><path d="M478.4 182.3L241.6 557.23M478.36 182.37l1.64-2.6M241.64 557.17l-1.64 2.6" stroke="#e81313" stroke-width="6" fill="none"/><path d="M278.54 442.22h-51.57" stroke="#979ea8" stroke-width="2" fill="none"/><path d="M279.54 443.22h-1.03v-2h1.03z" stroke="#979ea8" stroke-width=".05" fill="#979ea8"/><path d="M211.7 442.22l14.27-4.64v9.27z" stroke="#979ea8" stroke-width="2" fill="#979ea8"/><path d="M278.54 502.22h-51.57" stroke="#979ea8" stroke-width="2" fill="none"/><path d="M279.54 503.22h-1.03v-2h1.03z" stroke="#979ea8" stroke-width=".05" fill="#979ea8"/><path d="M211.7 502.22l14.27-4.64v9.27z" stroke="#979ea8" stroke-width="2" fill="#979ea8"/><path d="M278.54 262.22H126.97" stroke="#979ea8" stroke-width="2" fill="none"/><path d="M279.54 263.22h-1.03v-2h1.03z" stroke="#979ea8" stroke-width=".05" fill="#979ea8"/><path d="M111.7 262.22l14.27-4.64v9.27z" stroke="#979ea8" stroke-width="2" fill="#979ea8"/><path d="M620 306a6 6 0 0 1 6-6h56a6 6 0 0 1 6 6v32.44a6 6 0 0 1-6 6h-56a6 6 0 0 1-6-6zM380 426a6 6 0 0 1 6-6h56a6 6 0 0 1 6 6v32.44a6 6 0 0 1-6 6h-56a6 6 0 0 1-6-6z" stroke="#3a414a" fill="#e3fae3"/><path d="M449.46 442.22h51.57" stroke="#979ea8" stroke-width="2" fill="none"/><path d="M449.5 443.22h-1.03v-2h1.02z" stroke="#979ea8" stroke-width=".05" fill="#979ea8"/><path d="M516.3 442.22l-14.27 4.63v-9.27z" stroke="#979ea8" stroke-width="2" fill="#979ea8"/><path d="M520 366a6 6 0 0 1 6-6h56a6 6 0 0 1 6 6v32.44a6 6 0 0 1-6 6h-56a6 6 0 0 1-6-6zM620 366a6 6 0 0 1 6-6h56a6 6 0 0 1 6 6v32.44a6 6 0 0 1-6 6h-56a6 6 0 0 1-6-6z" stroke="#3a414a" fill="#fff3d9"/><path d="M449.46 322.22h151.57" stroke="#979ea8" stroke-width="2" fill="none"/><path d="M449.5 323.22h-1.03v-2h1.02z" stroke="#979ea8" stroke-width=".05" fill="#979ea8"/><path d="M616.3 322.22l-14.27 4.63v-9.27z" stroke="#979ea8" stroke-width="2" fill="#979ea8"/><path d="M40 306a6 6 0 0 1 6-6h56a6 6 0 0 1 6 6v32.44a6 6 0 0 1-6 6H46a6 6 0 0 1-6-6z" stroke="#3a414a" fill="#fff3d9"/><path d="M241.6 182.54l236.8 374.92M241.64 182.6L240 180M478.36 557.4L480 560" stroke="#e81313" stroke-width="6" fill="none"/><path d="M140 306a6 6 0 0 1 6-6h56a6 6 0 0 1 6 6v32.44a6 6 0 0 1-6 6h-56a6 6 0 0 1-6-6z" stroke="#3a414a" fill="#fff3d9"/><defs><path fill="#3a414a" d="M212-179c-10-28-35-45-73-45-59 0-87 40-87 99 0 60 29 101 89 101 43 0 62-24 78-52l27 14C228-24 195 4 139 4 59 4 22-46 18-125c-6-104 99-153 187-111 19 9 31 26 39 46" id="f"/><path fill="#3a414a" d="M141-36C126-15 110 5 73 4 37 3 15-17 15-53c-1-64 63-63 125-63 3-35-9-54-41-54-24 1-41 7-42 31l-33-3c5-37 33-52 76-52 45 0 72 20 72 64v82c-1 20 7 32 28 27v20c-31 9-61-2-59-35zM48-53c0 20 12 33 32 33 41-3 63-29 60-74-43 2-92-5-92 41" id="g"/><path fill="#3a414a" d="M96-169c-40 0-48 33-48 73s9 75 48 75c24 0 41-14 43-38l32 2c-6 37-31 61-74 61-59 0-76-41-82-99-10-93 101-131 147-64 4 7 5 14 7 22l-32 3c-4-21-16-35-41-35" id="h"/><path fill="#3a414a" d="M106-169C34-169 62-67 57 0H25v-261h32l-1 103c12-21 28-36 61-36 89 0 53 116 60 194h-32v-121c2-32-8-49-39-48" id="i"/><path fill="#3a414a" d="M100-194c63 0 86 42 84 106H49c0 40 14 67 53 68 26 1 43-12 49-29l28 8c-11 28-37 45-77 45C44 4 14-33 15-96c1-61 26-98 85-98zm52 81c6-60-76-77-97-28-3 7-6 17-6 28h103" id="j"/><g id="a"><use transform="matrix(0.06172839506172839,0,0,0.06172839506172839,0,0)" xlink:href="#f"/><use transform="matrix(0.06172839506172839,0,0,0.06172839506172839,15.987654320987653,0)" xlink:href="#g"/><use transform="matrix(0.06172839506172839,0,0,0.06172839506172839,28.333333333333332,0)" xlink:href="#h"/><use transform="matrix(0.06172839506172839,0,0,0.06172839506172839,39.44444444444444,0)" xlink:href="#i"/><use transform="matrix(0.06172839506172839,0,0,0.06172839506172839,51.79012345679012,0)" xlink:href="#j"/></g><path fill="#3a414a" d="M135-143c-3-34-86-38-87 0 15 53 115 12 119 90S17 21 10-45l28-5c4 36 97 45 98 0-10-56-113-15-118-90-4-57 82-63 122-42 12 7 21 19 24 35" id="k"/><path fill="#3a414a" d="M177-190C167-65 218 103 67 71c-23-6-38-20-44-43l32-5c15 47 100 32 89-28v-30C133-14 115 1 83 1 29 1 15-40 15-95c0-56 16-97 71-98 29-1 48 16 59 35 1-10 0-23 2-32h30zM94-22c36 0 50-32 50-73 0-42-14-75-50-75-39 0-46 34-46 75s6 73 46 73" id="l"/><path fill="#3a414a" d="M210-169c-67 3-38 105-44 169h-31v-121c0-29-5-50-35-48C34-165 62-65 56 0H25l-1-190h30c1 10-1 24 2 32 10-44 99-50 107 0 11-21 27-35 58-36 85-2 47 119 55 194h-31v-121c0-29-5-49-35-48" id="m"/><path fill="#3a414a" d="M117-194c89-4 53 116 60 194h-32v-121c0-31-8-49-39-48C34-167 62-67 57 0H25l-1-190h30c1 10-1 24 2 32 11-22 29-35 61-36" id="n"/><path fill="#3a414a" d="M59-47c-2 24 18 29 38 22v24C64 9 27 4 27-40v-127H5v-23h24l9-43h21v43h35v23H59v120" id="o"/><g id="b"><use transform="matrix(0.06172839506172839,0,0,0.06172839506172839,0,0)" xlink:href="#k"/><use transform="matrix(0.06172839506172839,0,0,0.06172839506172839,11.11111111111111,0)" xlink:href="#j"/><use transform="matrix(0.06172839506172839,0,0,0.06172839506172839,23.45679012345679,0)" xlink:href="#l"/><use transform="matrix(0.06172839506172839,0,0,0.06172839506172839,35.80246913580247,0)" xlink:href="#m"/><use transform="matrix(0.06172839506172839,0,0,0.06172839506172839,54.25925925925925,0)" xlink:href="#j"/><use transform="matrix(0.06172839506172839,0,0,0.06172839506172839,66.60493827160494,0)" xlink:href="#n"/><use transform="matrix(0.06172839506172839,0,0,0.06172839506172839,78.95061728395062,0)" xlink:href="#o"/></g><path fill="#3a414a" d="M27 0v-27h64v-190l-56 39v-29l58-41h29v221h61V0H27" id="p"/><use transform="matrix(0.06172839506172839,0,0,0.06172839506172839,0,0)" xlink:href="#p" id="c"/><path fill="#3a414a" d="M101-251c82-7 93 87 43 132L82-64C71-53 59-42 53-27h129V0H18c2-99 128-94 128-182 0-28-16-43-45-43s-46 15-49 41l-32-3c6-41 34-60 81-64" id="q"/><use transform="matrix(0.06172839506172839,0,0,0.06172839506172839,0,0)" xlink:href="#q" id="d"/><path fill="#3a414a" d="M126-127c33 6 58 20 58 59 0 88-139 92-164 29-3-8-5-16-6-25l32-3c6 27 21 44 54 44 32 0 52-15 52-46 0-38-36-46-79-43v-28c39 1 72-4 72-42 0-27-17-43-46-43-28 0-47 15-49 41l-32-3c6-42 35-63 81-64 48-1 79 21 79 65 0 36-21 52-52 59" id="r"/><use transform="matrix(0.06172839506172839,0,0,0.06172839506172839,0,0)" xlink:href="#r" id="e"/></defs></g></svg>