<svg xmlns="http://www.w3.org/2000/svg" xmlns:xlink="http://www.w3.org/1999/xlink" xmlns:lucid="lucid" width="720" height="379.54"><g transform="translate(0 -180.00000000000003)" lucid:page-tab-id="0_0"><path d="M20 206a6 6 0 0 1 6-6h188a6 6 0 0 1 6 6v327.54a6 6 0 0 1-6 6H26a6 6 0 0 1-6-6z" stroke="#3a414a" fill="#ffdda6"/><use xlink:href="#a" transform="matrix(1,0,0,1,32,212.00000000000003) translate(1.024691358024711 17.77777777777778)"/><use xlink:href="#b" transform="matrix(1,0,0,1,32,212.00000000000003) translate(71.33333333333334 17.77777777777778)"/><use xlink:href="#c" transform="matrix(1,0,0,1,32,212.00000000000003) translate(162.62962962962962 17.77777777777778)"/><path d="M260 206a6 6 0 0 1 6-6h188a6 6 0 0 1 6 6v327.54a6 6 0 0 1-6 6H266a6 6 0 0 1-6-6z" stroke="#3a414a" fill="#ffdda6"/><use xlink:href="#a" transform="matrix(1,0,0,1,272,212.00000000000003) translate(1.024691358024711 17.77777777777778)"/><use xlink:href="#b" transform="matrix(1,0,0,1,272,212.00000000000003) translate(71.33333333333334 17.77777777777778)"/><use xlink:href="#d" transform="matrix(1,0,0,1,272,212.00000000000003) translate(162.62962962962962 17.77777777777778)"/><path d="M500 206a6 6 0 0 1 6-6h188a6 6 0 0 1 6 6v327.54a6 6 0 0 1-6 6H506a6 6 0 0 1-6-6z" stroke="#3a414a" fill="#ffdda6"/><use xlink:href="#a" transform="matrix(1,0,0,1,512,212.00000000000003) translate(1.024691358024711 17.77777777777778)"/><use xlink:href="#b" transform="matrix(1,0,0,1,512,212.00000000000003) translate(71.33333333333334 17.77777777777778)"/><use xlink:href="#e" transform="matrix(1,0,0,1,512,212.00000000000003) translate(162.62962962962962 17.77777777777778)"/><path d="M20.54 397h20.58m20.57 0h41.14m20.57 0h41.16m20.57 0h41.15m20.57 0H288m20.57 0h41.15m20.57 0h41.14m20.57 0h41.16m20.57 0h41.15m20.57 0h41.15m20.58 0h41.14m20.58 0h20.57" stroke="#979ea8" stroke-width="2" fill="none"/><path d="M20.57 398h-1.03v-2h1.03zM700.47 398h-1.03v-2h1.03z" stroke="#979ea8" stroke-width=".05" fill="#979ea8"/><path d="M40 486a6 6 0 0 1 6-6h56a6 6 0 0 1 6 6v32.44a6 6 0 0 1-6 6H46a6 6 0 0 1-6-6z" stroke="#3a414a" fill="#fff3d9"/><use xlink:href="#f" transform="matrix(1,0,0,1,52,492) translate(15.827160493827162 17.77777777777778)"/><path d="M620 486a6 6 0 0 1 6-6h56a6 6 0 0 1 6 6v32.44a6 6 0 0 1-6 6h-56a6 6 0 0 1-6-6z" stroke="#3a414a" fill="#fff3d9"/><use xlink:href="#f" transform="matrix(1,0,0,1,632,491.9999999999999) translate(15.827160493827162 17.77777777777778)"/><path d="M280 426a6 6 0 0 1 6-6h56a6 6 0 0 1 6 6v32.44a6 6 0 0 1-6 6h-56a6 6 0 0 1-6-6z" stroke="#3a414a" fill="#fff3d9"/><use xlink:href="#f" transform="matrix(1,0,0,1,292,432) translate(15.827160493827162 17.77777777777778)"/><path d="M280 486a6 6 0 0 1 6-6h56a6 6 0 0 1 6 6v32.44a6 6 0 0 1-6 6h-56a6 6 0 0 1-6-6z" stroke="#3a414a" fill="#fff3d9"/><use xlink:href="#g" transform="matrix(1,0,0,1,292,492) translate(15.827160493827162 17.77777777777778)"/><path d="M140 426a6 6 0 0 1 6-6h56a6 6 0 0 1 6 6v32.44a6 6 0 0 1-6 6h-56a6 6 0 0 1-6-6z" stroke="#3a414a" fill="#fff3d9"/><use xlink:href="#g" transform="matrix(1,0,0,1,152,432) translate(15.827160493827162 17.77777777777778)"/><path d="M520 426a6 6 0 0 1 6-6h56a6 6 0 0 1 6 6v32.44a6 6 0 0 1-6 6h-56a6 6 0 0 1-6-6z" stroke="#3a414a" fill="#fff3d9"/><use xlink:href="#g" transform="matrix(1,0,0,1,532,432) translate(15.827160493827162 17.77777777777778)"/><path d="M380 486a6 6 0 0 1 6-6h56a6 6 0 0 1 6 6v32.44a6 6 0 0 1-6 6h-56a6 6 0 0 1-6-6z" stroke="#3a414a" fill="#fff3d9"/><use xlink:href="#h" transform="matrix(1,0,0,1,392,491.9999999999999) translate(15.827160493827162 17.77777777777778)"/><path d="M140 486a6 6 0 0 1 6-6h56a6 6 0 0 1 6 6v32.44a6 6 0 0 1-6 6h-56a6 6 0 0 1-6-6z" stroke="#3a414a" fill="#fff3d9"/><use xlink:href="#h" transform="matrix(1,0,0,1,152,492) translate(15.827160493827162 17.77777777777778)"/><path d="M40 426a6 6 0 0 1 6-6h56a6 6 0 0 1 6 6v32.44a6 6 0 0 1-6 6H46a6 6 0 0 1-6-6z" stroke="#3a414a" fill="#fff3d9"/><use xlink:href="#i" transform="matrix(1,0,0,1,52,432.00000000000006) translate(15.827160493827162 17.77777777777778)"/><path d="M380 426a6 6 0 0 1 6-6h56a6 6 0 0 1 6 6v32.44a6 6 0 0 1-6 6h-56a6 6 0 0 1-6-6z" stroke="#3a414a" fill="#fff3d9"/><use xlink:href="#i" transform="matrix(1,0,0,1,392,432.00000000000006) translate(15.827160493827162 17.77777777777778)"/><path d="M520 486a6 6 0 0 1 6-6h56a6 6 0 0 1 6 6v32.44a6 6 0 0 1-6 6h-56a6 6 0 0 1-6-6z" stroke="#3a414a" fill="#fff3d9"/><use xlink:href="#i" transform="matrix(1,0,0,1,532,492) translate(15.827160493827162 17.77777777777778)"/><path d="M40 335.56a6 6 0 0 1 6-6h56a6 6 0 0 1 6 6V368a6 6 0 0 1-6 6H46a6 6 0 0 1-6-6z" stroke="#3a414a" fill="#e3fae3"/><use xlink:href="#j" transform="matrix(1,0,0,1,52,341.5578902470206) translate(15.827160493827162 17.77777777777778)"/><path d="M280 335.56a6 6 0 0 1 6-6h56a6 6 0 0 1 6 6V368a6 6 0 0 1-6 6h-56a6 6 0 0 1-6-6z" stroke="#3a414a" fill="#e3fae3"/><use xlink:href="#k" transform="matrix(1,0,0,1,292,341.5578902470206) translate(15.827160493827162 17.77777777777778)"/><path d="M520 335.56a6 6 0 0 1 6-6h56a6 6 0 0 1 6 6V368a6 6 0 0 1-6 6h-56a6 6 0 0 1-6-6z" stroke="#3a414a" fill="#e3fae3"/><use xlink:href="#l" transform="matrix(1,0,0,1,532,341.5578902470206) translate(15.827160493827162 17.77777777777778)"/><path d="M620 335.56a6 6 0 0 1 6-6h56a6 6 0 0 1 6 6V368a6 6 0 0 1-6 6h-56a6 6 0 0 1-6-6z" stroke="#3a414a" fill="#e3fae3"/><use xlink:href="#m" transform="matrix(1,0,0,1,632,341.5578902470206) translate(15.827160493827162 17.77777777777778)"/><path d="M620 266a6 6 0 0 1 6-6h56a6 6 0 0 1 6 6v32.44a6 6 0 0 1-6 6h-56a6 6 0 0 1-6-6z" stroke="#3a414a" fill="#e3fae3"/><use xlink:href="#n" transform="matrix(1,0,0,1,632,272) translate(15.827160493827162 17.77777777777778)"/><path d="M520 266a6 6 0 0 1 6-6h56a6 6 0 0 1 6 6v32.44a6 6 0 0 1-6 6h-56a6 6 0 0 1-6-6z" stroke="#3a414a" fill="#e3fae3"/><g><use xlink:href="#o" transform="matrix(1,0,0,1,532,272) translate(9.654320987654321 17.77777777777778)"/></g><path d="M380 335.56a6 6 0 0 1 6-6h56a6 6 0 0 1 6 6V368a6 6 0 0 1-6 6h-56a6 6 0 0 1-6-6z" stroke="#3a414a" fill="#e3fae3"/><g><use xlink:href="#p" transform="matrix(1,0,0,1,392,341.5578902470206) translate(10.487654320987655 17.77777777777778)"/></g><path d="M620 426a6 6 0 0 1 6-6h56a6 6 0 0 1 6 6v32.44a6 6 0 0 1-6 6h-56a6 6 0 0 1-6-6z" stroke="#3a414a" fill="#e3fae3"/><g><use xlink:href="#q" transform="matrix(1,0,0,1,632,432) translate(9.654320987654321 17.77777777777778)"/></g><defs><path fill="#3a414a" d="M212-179c-10-28-35-45-73-45-59 0-87 40-87 99 0 60 29 101 89 101 43 0 62-24 78-52l27 14C228-24 195 4 139 4 59 4 22-46 18-125c-6-104 99-153 187-111 19 9 31 26 39 46" id="r"/><path fill="#3a414a" d="M141-36C126-15 110 5 73 4 37 3 15-17 15-53c-1-64 63-63 125-63 3-35-9-54-41-54-24 1-41 7-42 31l-33-3c5-37 33-52 76-52 45 0 72 20 72 64v82c-1 20 7 32 28 27v20c-31 9-61-2-59-35zM48-53c0 20 12 33 32 33 41-3 63-29 60-74-43 2-92-5-92 41" id="s"/><path fill="#3a414a" d="M96-169c-40 0-48 33-48 73s9 75 48 75c24 0 41-14 43-38l32 2c-6 37-31 61-74 61-59 0-76-41-82-99-10-93 101-131 147-64 4 7 5 14 7 22l-32 3c-4-21-16-35-41-35" id="t"/><path fill="#3a414a" d="M106-169C34-169 62-67 57 0H25v-261h32l-1 103c12-21 28-36 61-36 89 0 53 116 60 194h-32v-121c2-32-8-49-39-48" id="u"/><path fill="#3a414a" d="M100-194c63 0 86 42 84 106H49c0 40 14 67 53 68 26 1 43-12 49-29l28 8c-11 28-37 45-77 45C44 4 14-33 15-96c1-61 26-98 85-98zm52 81c6-60-76-77-97-28-3 7-6 17-6 28h103" id="v"/><g id="a"><use transform="matrix(0.06172839506172839,0,0,0.06172839506172839,0,0)" xlink:href="#r"/><use transform="matrix(0.06172839506172839,0,0,0.06172839506172839,15.987654320987653,0)" xlink:href="#s"/><use transform="matrix(0.06172839506172839,0,0,0.06172839506172839,28.333333333333332,0)" xlink:href="#t"/><use transform="matrix(0.06172839506172839,0,0,0.06172839506172839,39.44444444444444,0)" xlink:href="#u"/><use transform="matrix(0.06172839506172839,0,0,0.06172839506172839,51.79012345679012,0)" xlink:href="#v"/></g><path fill="#3a414a" d="M135-143c-3-34-86-38-87 0 15 53 115 12 119 90S17 21 10-45l28-5c4 36 97 45 98 0-10-56-113-15-118-90-4-57 82-63 122-42 12 7 21 19 24 35" id="w"/><path fill="#3a414a" d="M177-190C167-65 218 103 67 71c-23-6-38-20-44-43l32-5c15 47 100 32 89-28v-30C133-14 115 1 83 1 29 1 15-40 15-95c0-56 16-97 71-98 29-1 48 16 59 35 1-10 0-23 2-32h30zM94-22c36 0 50-32 50-73 0-42-14-75-50-75-39 0-46 34-46 75s6 73 46 73" id="x"/><path fill="#3a414a" d="M210-169c-67 3-38 105-44 169h-31v-121c0-29-5-50-35-48C34-165 62-65 56 0H25l-1-190h30c1 10-1 24 2 32 10-44 99-50 107 0 11-21 27-35 58-36 85-2 47 119 55 194h-31v-121c0-29-5-49-35-48" id="y"/><path fill="#3a414a" d="M117-194c89-4 53 116 60 194h-32v-121c0-31-8-49-39-48C34-167 62-67 57 0H25l-1-190h30c1 10-1 24 2 32 11-22 29-35 61-36" id="z"/><path fill="#3a414a" d="M59-47c-2 24 18 29 38 22v24C64 9 27 4 27-40v-127H5v-23h24l9-43h21v43h35v23H59v120" id="A"/><g id="b"><use transform="matrix(0.06172839506172839,0,0,0.06172839506172839,0,0)" xlink:href="#w"/><use transform="matrix(0.06172839506172839,0,0,0.06172839506172839,11.11111111111111,0)" xlink:href="#v"/><use transform="matrix(0.06172839506172839,0,0,0.06172839506172839,23.45679012345679,0)" xlink:href="#x"/><use transform="matrix(0.06172839506172839,0,0,0.06172839506172839,35.80246913580247,0)" xlink:href="#y"/><use transform="matrix(0.06172839506172839,0,0,0.06172839506172839,54.25925925925925,0)" xlink:href="#v"/><use transform="matrix(0.06172839506172839,0,0,0.06172839506172839,66.60493827160494,0)" xlink:href="#z"/><use transform="matrix(0.06172839506172839,0,0,0.06172839506172839,78.95061728395062,0)" xlink:href="#A"/></g><path fill="#3a414a" d="M27 0v-27h64v-190l-56 39v-29l58-41h29v221h61V0H27" id="B"/><use transform="matrix(0.06172839506172839,0,0,0.06172839506172839,0,0)" xlink:href="#B" id="c"/><path fill="#3a414a" d="M101-251c82-7 93 87 43 132L82-64C71-53 59-42 53-27h129V0H18c2-99 128-94 128-182 0-28-16-43-45-43s-46 15-49 41l-32-3c6-41 34-60 81-64" id="C"/><use transform="matrix(0.06172839506172839,0,0,0.06172839506172839,0,0)" xlink:href="#C" id="d"/><path fill="#3a414a" d="M126-127c33 6 58 20 58 59 0 88-139 92-164 29-3-8-5-16-6-25l32-3c6 27 21 44 54 44 32 0 52-15 52-46 0-38-36-46-79-43v-28c39 1 72-4 72-42 0-27-17-43-46-43-28 0-47 15-49 41l-32-3c6-42 35-63 81-64 48-1 79 21 79 65 0 36-21 52-52 59" id="D"/><use transform="matrix(0.06172839506172839,0,0,0.06172839506172839,0,0)" xlink:href="#D" id="e"/><use transform="matrix(0.06172839506172839,0,0,0.06172839506172839,0,0)" xlink:href="#B" id="f"/><use transform="matrix(0.06172839506172839,0,0,0.06172839506172839,0,0)" xlink:href="#C" id="g"/><use transform="matrix(0.06172839506172839,0,0,0.06172839506172839,0,0)" xlink:href="#D" id="h"/><path fill="#3a414a" d="M155-56V0h-30v-56H8v-25l114-167h33v167h35v25h-35zm-30-156c-27 46-58 90-88 131h88v-131" id="E"/><use transform="matrix(0.06172839506172839,0,0,0.06172839506172839,0,0)" xlink:href="#E" id="i"/><path fill="#3a414a" d="M64 0c3-98 48-159 88-221H18v-27h164v26C143-157 98-101 97 0H64" id="F"/><use transform="matrix(0.06172839506172839,0,0,0.06172839506172839,0,0)" xlink:href="#F" id="j"/><path fill="#3a414a" d="M110-160c48 1 74 30 74 79 0 53-28 85-80 85-65 0-83-55-86-122-5-90 50-162 133-122 14 7 22 21 27 39l-31 6c-5-40-67-38-82-6-9 19-15 44-15 74 11-20 30-34 60-33zm-7 138c34 0 49-23 49-58s-16-56-50-56c-29 0-50 16-49 49 1 36 15 65 50 65" id="G"/><use transform="matrix(0.06172839506172839,0,0,0.06172839506172839,0,0)" xlink:href="#G" id="k"/><path fill="#3a414a" d="M54-142c48-35 137-8 131 61C196 18 31 33 14-55l32-4c7 23 22 37 52 37 35-1 51-22 54-58 4-55-73-65-99-34H22l8-134h141v27H59" id="H"/><use transform="matrix(0.06172839506172839,0,0,0.06172839506172839,0,0)" xlink:href="#H" id="l"/><path fill="#3a414a" d="M134-131c28 9 52 24 51 62-1 50-34 73-85 73S17-19 16-69c0-36 21-54 49-61-75-25-45-126 34-121 46 3 78 18 79 63 0 33-17 51-44 57zm-34-11c31 1 46-15 46-44 0-28-17-43-47-42-29 0-46 13-45 42 1 28 16 44 46 44zm1 122c35 0 51-18 51-52 0-30-18-46-53-46-33 0-51 17-51 47 0 34 19 51 53 51" id="I"/><use transform="matrix(0.06172839506172839,0,0,0.06172839506172839,0,0)" xlink:href="#I" id="m"/><path fill="#3a414a" d="M99-251c64 0 84 50 84 122C183-37 130 33 47-8c-14-7-20-23-25-40l30-5c6 39 69 39 84 7 9-19 16-44 16-74-10 22-31 35-62 35-49 0-73-33-73-83 0-54 28-83 82-83zm-1 141c31-1 51-18 51-49 0-36-14-67-51-67-34 0-49 23-49 58 0 34 15 58 49 58" id="J"/><use transform="matrix(0.06172839506172839,0,0,0.06172839506172839,0,0)" xlink:href="#J" id="n"/><path fill="#3a414a" d="M101-251c68 0 85 55 85 127S166 4 100 4C33 4 14-52 14-124c0-73 17-127 87-127zm-1 229c47 0 54-49 54-102s-4-102-53-102c-51 0-55 48-55 102 0 53 5 102 54 102" id="K"/><g id="o"><use transform="matrix(0.06172839506172839,0,0,0.06172839506172839,0,0)" xlink:href="#B"/><use transform="matrix(0.06172839506172839,0,0,0.06172839506172839,12.345679012345679,0)" xlink:href="#K"/></g><g id="p"><use transform="matrix(0.06172839506172839,0,0,0.06172839506172839,0,0)" xlink:href="#B"/><use transform="matrix(0.06172839506172839,0,0,0.06172839506172839,10.679012345679013,0)" xlink:href="#B"/></g><g id="q"><use transform="matrix(0.06172839506172839,0,0,0.06172839506172839,0,0)" xlink:href="#B"/><use transform="matrix(0.06172839506172839,0,0,0.06172839506172839,12.345679012345679,0)" xlink:href="#C"/></g></defs></g></svg>